<?xml version="1.0" encoding="utf-8"?>
<!-- Generator: Adobe Illustrator 19.2.1, SVG Export Plug-In . SVG Version: 6.00 Build 0)  -->
<svg version="1.1" id="layer" xmlns="http://www.w3.org/2000/svg" xmlns:xlink="http://www.w3.org/1999/xlink" x="0px" y="0px"
	 viewBox="0 0 652 652" style="enable-background:new 0 0 652 652;" xml:space="preserve">
<style type="text/css">
	.st0{fill:#0076B6;}
</style>
<g id="Layer_2">
	<g id="Layer_1-2">
		<path class="st0" d="M517.5,88.8c-2,4.8-1.7,10.2,0.8,14.8c-20.9-16.8-85.4-32.5-92.5-28.2c-7.1,4.3,28,12.5,20.7,17.1
			c-7.3,4.6-58.7-17.9-71.2-7.8c-10,8.1,68.9,22.1,59.8,31.2c-5.4,5.4-55.8-16.4-64.5-7.7c-8,8,58.8,23.4,48.2,34.1
			c-7.1,7.1-127.8-51.3-175.1-3.9c-88.3-86.1-207.6,34.9-189.9,36.7c25,2.7,57.2-43.6,76.4-41.5c17.7,1.8-43.6,28.3-22.9,30.6
			c15.1,1.6,41.8-25.1,61.9-23c15.1,1.6-30.9,17-14.7,18.7c16.2,1.7,50.6-16.4,76.8-13.6c-47.5,49.3-134.9,160.1-120.9,170.3
			c7.1,5,90.3-101.6,105.3-86.5c-13.8,13.8-57.5,70.7-48.9,79.3c8.6,8.6,30.7-49.8,108.8-81.3c153.7-61.9,215.1,72.7,231.5,67.2
			c8.3-2.8-44.1-66.8-35.1-70.3c9-3.4,75.5,98.5,83.2,93.7c6.6-4.1-51.9-100.9-68.2-127.3c-3.4-5.6-4-12.4-1.4-18.5
			c3.5-8.5,11.6-14.3,20.8-14.9c22.5-2.5,67.7,38.2,67.7,38.2s5.5,6.5,14.7-3.5C592.4,181.2,519.7,84.1,517.5,88.8"/>
		<path class="st0" d="M29,486c-1.3-2.5-3.3-2.5-5.7-1.1c-9.4,6.3-20.5,9.7-31.8,9.9c-18.9,0-29.8-9.6-29.8-26.6v-38.3
			c0.2-17,10.8-26.4,30.2-26.4c10.1,0.1,20,2.8,28.7,7.9c1.7,1.3,4.2,1,5.6-0.8c0.1-0.1,0.1-0.2,0.2-0.3l10.6-16.4
			c1.4-1.5,1.3-4-0.2-5.4c-0.2-0.2-0.4-0.3-0.6-0.5c-13.4-8.6-29-13.2-44.9-13.2c-37.9,0-61.2,21.5-61.2,55v38
			c0,33.4,23,55.3,61.3,55.3c17.3,0.2,34.3-5.1,48.3-15.3c2.2-1.6,2.2-3.3,0.8-5.5L29,486z"/>
		<path class="st0" d="M113,374.9c-22.2,0-40.5,5.5-53.6,14.5c-1.4,1.1-1.4,2.5,0,4.7l10.9,16.7c0.9,1.7,3,2.5,4.7,1.6
			c0.3-0.1,0.5-0.3,0.7-0.5c10.7-5.9,22.8-8.9,35-8.8c20.3,0,27.4,8.2,27.4,27.7v5.2c-9.1-1.3-18.2-2-27.4-2.2
			c-35,0-59.9,14.1-59.9,43.8c0,34.2,29.3,45.7,61,45.7c18.6-0.1,37.2-2.9,55-8.2c1.9-0.8,3.1-2.6,3-4.6v-79.9
			C169.9,391.9,146.9,374.9,113,374.9 M138.2,492.3c-8.6,2-17.4,3.1-26.3,3.3c-16.7,0-29-5.5-29-18.4c0-11.2,8.2-18,28.7-18
			c8.9,0.1,17.7,0.9,26.5,2.2V492.3z"/>
		<path class="st0" d="M303.5,378.2h-23.4c-2.8,0-4.1,1.4-4.1,3.9v99.6c-7.7,3.9-16.2,5.8-24.8,5.5c-16.4,0-31.2-7.4-31.2-28.3V382
			c0.2-1.9-1.2-3.7-3.2-3.9c-0.2,0-0.4,0-0.6,0h-23.8c-1.9-0.3-3.7,1-4.1,2.9c-0.1,0.3-0.1,0.6,0,1v77.8c0,37.8,30.1,55.8,58.5,55.8
			c9.9-0.2,19.8-1.8,29.3-4.9c1.1,27.4-10.9,35.6-29.8,35.6c-13.4-0.2-26.4-4.6-37.2-12.6c-1.6-1.1-3.8-0.7-4.9,0.9
			c-0.1,0.2-0.2,0.3-0.3,0.5L192.1,552c-1.4,2.2-1.4,3.8,0.8,5.4c14.1,11.8,30.4,17.3,53.6,17.3c41.9,0,61-21.6,61-63.6V382
			C307.6,379.6,306.2,378.2,303.5,378.2"/>
		<path class="st0" d="M527.2,435.1c-18.1-3.5-30.4-6.3-30.4-17.7c0-9.1,8.8-15.1,24.8-15.1c12.1,0.1,24.1,3.2,34.8,9
			c1.9,1.1,4.3,0.5,5.5-1.3l10.4-17.7c1.2-1.5,1-3.8-0.6-5c-0.2-0.2-0.5-0.4-0.8-0.5c-14.5-8.2-30.9-12.5-47.6-12.6
			c-29.3,0-58,12.6-58,43c0,33.1,34.8,41.6,55.3,45.4c12.3,2.2,25.5,5.2,25.5,16.2c0,10.4-11.2,15.8-25.5,15.8
			c-14.9-0.2-29.3-5.1-41.3-13.9c-2.5-1.7-4.1-1.4-5.5,1.1l-10.4,17.7c-1.3,2.2-1.3,4.1,1.1,5.4c16.2,11.6,35.6,17.8,55.6,17.7
			c32.8,0,58-14.8,58-45.4c0-31.5-28.3-38.6-50.9-42.7"/>
		<path class="st0" d="M651.7,374.9c-30.1,0-60.1,15.9-60.1,56.1v38.9c0,36.4,29,53.3,59.9,53.3c20.2,0.4,39.8-6.3,55.5-18.9
			c1.7-0.9,2.4-3,1.5-4.8c-0.2-0.4-0.4-0.7-0.7-1l-11.2-15.1c-1-1.7-3.1-2.3-4.8-1.3c-0.2,0.1-0.5,0.3-0.7,0.5
			c-11.2,8.3-24.8,12.7-38.7,12.7c-17.7,0-29-8.5-29-25.2v-7.6h83.2c2.8,0,4.1-1.4,4.1-3.9v-27.6c0-40.2-29.3-56.1-59.1-56.1
			 M680,438h-56.5v-7.1c0-20.3,12-27.9,28.3-27.9c15.3,0,28.3,7.9,28.3,27.9L680,438z"/>
		<path class="st0" d="M446.4,378.2h-23.8c-1.9-0.2-3.7,1.2-3.9,3.2c0,0.2,0,0.4,0,0.7v79.1c0,25.4-11.2,33.4-30.1,33.6
			c-19,0.2-30.2-8.3-30.2-33.6V382c0.2-1.9-1.2-3.7-3.2-3.9c-0.2,0-0.4,0-0.6,0h-23.8c-2.7,0-4.1,1.4-4.1,3.9v79.6
			c0,43.5,25.1,61.3,61.8,61.5l0,0c36.7-0.2,61.8-18.1,61.8-61.5V382c0-2.5-1.4-3.9-4.1-3.9"/>
	</g>
</g>
</svg>
