<svg width="165" height="163" viewBox="0 0 165 163" fill="none" xmlns="http://www.w3.org/2000/svg">
<g clip-path="url(#clip0)">
<path d="M93.9002 0.642918C93.5002 1.04292 93.2002 7.24292 93.2002 14.5429V27.6429L97.8002 28.8429C113.6 33.1429 127.7 45.5429 133.7 60.5429C137.2 69.3429 138.2 84.0429 135.9 93.8429L134.5 100.043L137.3 102.143C138.8 103.243 141.6 104.743 143.4 105.643C145.2 106.443 148.9 108.443 151.6 110.143C157.5 113.743 158.1 113.343 161 104.543C164.2 95.0429 165.3 83.4429 165.4 60.1429C165.4 36.5429 164.6 31.2429 159.5 21.7429C153.1 10.0429 145.5 5.84292 126 3.14292C110.3 0.842918 94.9002 -0.257082 93.9002 0.642918Z" fill="#82B125"/>
<path d="M29.7077 121.144C24.2077 124.444 19.0077 127.544 18.2077 128.044C15.8077 129.444 34.8077 147.444 44.2077 152.744C57.1077 159.944 65.7077 162.344 80.8077 162.844C91.8077 163.244 95.2077 162.944 102.308 161.144C117.708 157.244 130.708 149.644 142.508 137.744C146.208 134.044 149.208 130.544 149.208 130.044C149.208 129.144 145.508 126.544 132.608 118.644L126.508 114.944L120.708 120.544C108.608 132.144 90.7077 137.844 75.2077 135.144C65.6077 133.444 53.8077 127.444 46.5077 120.544C43.4077 117.544 40.5077 115.044 40.2077 115.144C39.9077 115.144 35.2077 117.944 29.7077 121.144Z" fill="#3F3D3E"/>
<path d="M72.6076 13.1585C72.302 6.75171 72.0308 0.703862 71.9687 -0.237492C71.8706 -3.01425 47.0239 5.21013 37.9077 10.9845C25.4617 18.9437 19.2789 25.3852 11.6951 38.4522C6.139 47.9543 4.79489 51.0917 3.02198 58.1985C-0.827195 73.6113 -0.28122 88.66 4.62086 104.686C6.13032 109.696 7.79473 113.995 8.23524 114.231C9.02817 114.657 13.0692 112.627 26.1318 104.999L32.2773 101.375L30.0873 93.6159C25.5915 77.4679 29.0375 59.001 38.7488 46.6223C44.7879 38.9687 55.6562 31.4109 65.1887 28.2436C69.2983 26.9316 72.8727 25.5593 72.9266 25.2477C73.0685 24.9833 72.825 19.5179 72.6076 13.1585Z" fill="#3F3D3E"/>
</g>
<defs>
<clipPath id="clip0">
<rect width="165" height="163" fill="white"/>
</clipPath>
</defs>
</svg>
