<svg width="78" height="77" viewBox="0 0 78 77" fill="none" xmlns="http://www.w3.org/2000/svg">
<path d="M35.6835 0.646879C32.5835 1.84688 3.08353 31.0469 1.08353 34.8469C-1.51647 39.6469 0.0835342 42.4469 11.1835 53.5469L21.6835 64.0469L29.6835 56.0469C34.6835 51.0469 37.6835 47.3469 37.6835 45.9469C37.6835 44.7469 36.3835 42.1469 34.6835 40.0469C32.2835 36.9469 31.6835 35.3469 31.6835 31.2469C31.6835 26.3469 31.7835 26.2469 40.8835 16.8469L50.0835 7.54688L46.6835 4.04688C42.7835 0.246879 39.3835 -0.853121 35.6835 0.646879Z" fill="#003395"/>
<path d="M48.384 21.3469C43.684 26.0469 40.684 29.9469 40.684 31.1469C40.684 32.3469 42.084 34.9469 43.684 37.0469C45.984 39.9469 46.684 41.8469 46.684 45.2469C46.684 51.2469 45.784 52.7469 36.484 62.1469L28.584 70.2469L32.184 73.3469C34.784 75.7469 36.684 76.5469 39.384 76.5469C42.784 76.5469 44.284 75.3469 60.084 59.5469C76.584 43.2469 77.184 42.5469 77.184 38.5469C77.184 34.7469 76.484 33.9469 66.684 24.0469L56.184 13.5469L48.384 21.3469Z" fill="#4E84C4"/>
</svg>
