<svg width="200" height="200" viewBox="0 0 200 200" fill="none" xmlns="http://www.w3.org/2000/svg">
<rect width="200" height="200" fill="#2B3F4A"/>
<path d="M160.314 97.1615C159.987 97.4898 159.57 97.7134 159.116 97.8041C158.662 97.8947 158.191 97.8482 157.763 97.6704C157.336 97.4926 156.971 97.1917 156.715 96.8058C156.458 96.42 156.323 95.9666 156.325 95.5035C156.326 95.119 156.421 94.7406 156.602 94.4018C156.784 94.063 157.046 93.7742 157.366 93.561C157.686 93.3478 158.054 93.2168 158.436 93.1796C158.819 93.1424 159.205 93.2001 159.56 93.3477C159.915 93.4952 160.228 93.728 160.471 94.0255C160.715 94.3229 160.881 94.6759 160.956 95.053C161.03 95.4302 161.011 95.8199 160.899 96.1877C160.787 96.5554 160.586 96.8899 160.314 97.1615V97.1615ZM157.228 94.0809C157.038 94.2656 156.887 94.4875 156.786 94.7328C156.685 94.978 156.635 95.2415 156.64 95.5068C156.635 95.773 156.684 96.0374 156.784 96.2841C156.885 96.5307 157.034 96.7543 157.224 96.9414C157.411 97.1294 157.633 97.2786 157.878 97.3804C158.123 97.4821 158.386 97.5345 158.651 97.5345C158.916 97.5345 159.179 97.4821 159.424 97.3804C159.669 97.2786 159.891 97.1294 160.078 96.9414C160.455 96.5608 160.666 96.0468 160.666 95.5112C160.666 94.9756 160.455 94.4616 160.078 94.0809C159.891 93.8931 159.669 93.744 159.425 93.6423C159.18 93.5405 158.918 93.4882 158.653 93.4882C158.388 93.4882 158.126 93.5405 157.881 93.6423C157.637 93.744 157.415 93.8931 157.228 94.0809V94.0809ZM158.612 94.2107C158.849 94.1988 159.087 94.2301 159.313 94.3031C159.44 94.3539 159.548 94.4446 159.62 94.5618C159.692 94.679 159.724 94.8164 159.712 94.9534C159.719 95.0521 159.699 95.1509 159.655 95.2398C159.612 95.3286 159.546 95.4044 159.463 95.4595C159.35 95.5258 159.225 95.5685 159.095 95.5849C159.181 95.5935 159.264 95.6204 159.339 95.6636C159.413 95.7069 159.478 95.7656 159.528 95.8357C159.613 95.9506 159.661 96.0888 159.666 96.2318V96.4188C159.666 96.4783 159.668 96.5421 159.672 96.6092C159.672 96.655 159.68 96.7005 159.697 96.7434L159.712 96.7753H159.29L159.284 96.75L159.277 96.7203L159.268 96.6389V96.4353C159.283 96.3249 159.269 96.2124 159.226 96.1093C159.184 96.0062 159.114 95.9163 159.026 95.8489C158.867 95.7819 158.695 95.7536 158.523 95.7664H158.166V96.7753H157.713V94.2118L158.612 94.2107ZM159.106 94.6211C158.933 94.5464 158.744 94.5136 158.556 94.5254H158.166V95.4518H158.578C158.725 95.4583 158.871 95.439 159.011 95.3946C159.093 95.3665 159.164 95.3121 159.212 95.2399C159.26 95.1678 159.283 95.0817 159.277 94.9952C159.286 94.923 159.275 94.8498 159.245 94.7837C159.215 94.7176 159.166 94.6613 159.106 94.6211V94.6211ZM50.5687 112.999C45.9146 112.999 43.8148 111.244 43.0525 109.907L42.2121 112.732H40V87H44.0062V95.5596C44.8455 94.2613 46.7913 92.9257 50.6457 92.9257C57.0949 92.9257 58.8879 97.6192 58.8879 102.962C58.8879 108.304 56.9794 112.999 50.5687 112.999ZM49.3477 96.3605C44.7311 96.3605 43.9688 99.1077 43.9688 102.924C43.9688 106.97 44.9225 109.68 49.4621 109.68C53.8511 109.68 54.8048 106.97 54.8048 102.963C54.8048 99.0318 53.8511 96.3605 49.3488 96.3605H49.3477ZM76.8299 112.733L75.9906 109.908C75.2657 111.32 73.2054 113 68.8164 113C62.3683 113 61.1099 109.451 61.1099 103.917V93.1919H65.1161V104.221C65.1161 107.732 65.7651 109.564 69.9615 109.564C74.0832 109.564 74.961 107.58 74.961 104.03V93.1941H79.0815V112.734L76.8299 112.733ZM103.964 87H108.01V93.1919H113.123V96.4738H108.125V107.122C108.125 108.953 108.887 109.795 113.123 109.604V112.886C106.675 113.267 103.964 111.74 103.964 107.122V87ZM124.464 112.999C116.794 112.999 114.81 108.153 114.81 102.962C114.81 97.8106 116.832 92.9257 124.501 92.9257C132.096 92.9257 134.194 97.8106 134.194 102.962C134.194 108.191 132.096 112.999 124.464 112.999ZM124.502 96.245C119.962 96.245 118.969 99.2981 118.969 102.962C118.969 106.664 119.962 109.68 124.464 109.68C129.042 109.68 130.035 106.742 130.035 102.962C130.035 99.3366 129.119 96.245 124.502 96.245ZM150.512 112.733V101.856C150.512 98.3816 149.901 96.322 145.741 96.322C141.581 96.322 140.705 98.3442 140.705 101.856V112.733H136.622V93.193H138.835L139.75 95.9392C140.399 94.6046 142.46 92.9246 146.886 92.9246C153.297 92.9246 154.556 96.6653 154.556 102.199V112.733H150.512ZM101.95 112.674L94.1382 102.85L101.819 93.1919H97.0785L91.7512 99.89L86.347 93.1919H81.6071L89.3973 102.85L81.6071 112.644H86.347L91.7842 105.808L97.2105 112.674H101.95V112.674Z" fill="#F9FFFF"/>
</svg>
