<svg width="600" height="600" viewBox="0 0 600 600" fill="none" xmlns="http://www.w3.org/2000/svg">
<rect width="600" height="600" fill="#3A7BD5"/>
<path fill-rule="evenodd" clip-rule="evenodd" d="M260.22 165.47C256.85 178.65 226.52 169.67 227.59 158.77C228.91 145.37 263.52 153.07 260.22 165.47Z" fill="white"/>
<path fill-rule="evenodd" clip-rule="evenodd" d="M361.12 214.79C357.81 221.03 346.55 221.55 335.97 215.91C325.37 210.29 319.47 200.68 322.8 194.44C326.09 188.21 337.34 187.72 347.97 193.33C358.54 198.94 364.44 208.57 361.12 214.79Z" fill="white"/>
<path fill-rule="evenodd" clip-rule="evenodd" d="M185.76 204.8C200.09 202.51 219.71 211.12 215.04 230.74C209.45 254.19 158.63 248.02 166.51 219.03C168.15 212.97 174.42 206.61 185.76 204.8Z" fill="white"/>
<path fill-rule="evenodd" clip-rule="evenodd" d="M409.77 210.5C406.38 216.7 394.18 216.57 382.51 210.17C370.82 203.78 364.1 193.58 367.49 187.38C370.87 181.2 383.05 181.35 394.78 187.73C406.43 194.12 413.15 204.33 409.77 210.5Z" fill="white"/>
<path fill-rule="evenodd" clip-rule="evenodd" d="M407.43 286.95C403.81 293.02 386.68 289.51 369.17 279.06C351.6 268.62 340.32 255.25 343.93 249.18C347.53 243.12 364.64 246.64 382.23 257.08C399.75 267.51 411.02 280.89 407.43 286.95Z" fill="white"/>
<path fill-rule="evenodd" clip-rule="evenodd" d="M138.89 170.49C148.38 169.4 161.45 171.02 162.32 180.53C163.89 197.77 122.24 204.18 118.8 188.06C116.24 176.03 128.61 171.67 138.89 170.49Z" fill="white"/>
<path fill-rule="evenodd" clip-rule="evenodd" d="M293.71 214.84C303.81 213.34 314.18 217.73 321.31 224.05C331.18 232.76 339.93 255.3 319.64 256.68C312.01 257.2 302.25 253.68 295.37 248.32C285.52 240.62 272.52 217.99 293.71 214.84Z" fill="white"/>
<path fill-rule="evenodd" clip-rule="evenodd" d="M449.94 260.03C449.87 262.01 448.56 263.77 446.65 264.31C432.88 268.25 419.72 259.74 408.34 250.82C404.15 247.54 373.94 219.77 404.16 223.21C413.46 224.27 429.43 232.69 439.3 241.62C444.68 246.49 450.16 253.21 449.94 260.03Z" fill="white"/>
<path fill-rule="evenodd" clip-rule="evenodd" d="M245.16 256.68C254.09 255.23 266.22 259.3 273.62 265.89C285.15 276.15 294.32 300.07 283.66 315.25C279.64 320.97 270.09 324.4 264.41 324.46C242.74 324.66 215.02 292.52 228.43 267.56C230.99 262.8 236.68 258.06 245.16 256.68Z" fill="white"/>
<path fill-rule="evenodd" clip-rule="evenodd" d="M338.05 175.25C335.67 179.61 327.08 179.51 318.86 175.01C310.63 170.52 305.91 163.34 308.3 158.98C310.67 154.63 319.25 154.73 327.5 159.22C335.69 163.72 340.43 170.9 338.05 175.25Z" fill="white"/>
<path fill-rule="evenodd" clip-rule="evenodd" d="M211.68 163.1C211.68 168.71 203.34 173.27 193.03 173.27C182.72 173.27 174.38 168.71 174.38 163.1C174.38 157.49 182.72 152.93 193.03 152.93C203.34 152.93 211.68 157.49 211.68 163.1Z" fill="white"/>
<path fill-rule="evenodd" clip-rule="evenodd" d="M215.55 184.41C215.55 191.62 207.21 197.49 196.9 197.49C186.6 197.49 178.26 191.63 178.26 184.41C178.26 177.19 186.6 171.34 196.9 171.34C207.21 171.33 215.55 177.19 215.55 184.41Z" fill="white"/>
<path d="M292.36 178.76C295.94 175.79 296.31 171.16 293.1 167.8C289.13 163.66 283.09 160.34 276.97 159.62C271.02 158.92 262.91 159.57 261.91 164.64C260.2 173.27 275.27 179.86 281.67 180.73C284.32 181.08 290.71 180.13 292.36 178.76Z" fill="white"/>
<path d="M289.67 180.54C288.15 180.43 286.37 180.74 284.5 180.92C282.98 181.07 281.52 181.58 280.26 182.43C277.84 184.05 277.05 186.24 276.97 188.06C276.53 198.57 295.25 208.9 309.41 207.25C313.6 206.76 316.72 203.13 316.49 198.92C315.88 188.05 296.73 181.03 289.67 180.54Z" fill="white"/>
<path d="M255.56 204.96C257.86 204.63 260.03 203.63 261.74 202.06C270.83 193.72 256.68 179.54 245.16 178.02C235.59 176.76 225.47 179.77 225.09 188.06C224.65 197.25 239.12 204.43 244.36 205.38C248.01 206.05 252.8 205.35 255.56 204.96Z" fill="white"/>
<path d="M255.24 206.15C250.55 205.62 247.19 206.09 245.73 206.37C245.29 206.46 244.85 206.57 244.43 206.72C237.72 209.05 233.04 212.83 232.62 219.86C231.79 233.59 246.5 244.37 257.72 245.8C265.31 246.77 275.32 245.29 278.64 239.94C286.92 226.61 272.99 213.27 260.56 207.62C258.87 206.86 257.08 206.36 255.24 206.15Z" fill="white"/>
<path fill-rule="evenodd" clip-rule="evenodd" d="M260.22 165.47C256.85 178.65 226.52 169.67 227.59 158.77C228.91 145.37 263.52 153.07 260.22 165.47Z" fill="white"/>
<path fill-rule="evenodd" clip-rule="evenodd" d="M361.12 214.79C357.81 221.03 346.55 221.55 335.97 215.91C325.37 210.29 319.47 200.68 322.8 194.44C326.09 188.21 337.34 187.72 347.97 193.33C358.54 198.94 364.44 208.57 361.12 214.79Z" fill="white"/>
<path fill-rule="evenodd" clip-rule="evenodd" d="M185.76 204.8C200.09 202.51 219.71 211.12 215.04 230.74C209.45 254.19 158.63 248.02 166.51 219.03C168.15 212.97 174.42 206.61 185.76 204.8Z" fill="white"/>
<path fill-rule="evenodd" clip-rule="evenodd" d="M409.77 210.5C406.38 216.7 394.18 216.57 382.51 210.17C370.82 203.78 364.1 193.58 367.49 187.38C370.87 181.2 383.05 181.35 394.78 187.73C406.43 194.12 413.15 204.33 409.77 210.5Z" fill="white"/>
<path fill-rule="evenodd" clip-rule="evenodd" d="M407.43 286.95C403.81 293.02 386.68 289.51 369.17 279.06C351.6 268.62 340.32 255.25 343.93 249.18C347.53 243.12 364.64 246.64 382.23 257.08C399.75 267.51 411.02 280.89 407.43 286.95Z" fill="white"/>
<path fill-rule="evenodd" clip-rule="evenodd" d="M138.89 170.49C148.38 169.4 161.45 171.02 162.32 180.53C163.89 197.77 122.24 204.18 118.8 188.06C116.24 176.03 128.61 171.67 138.89 170.49Z" fill="white"/>
<path fill-rule="evenodd" clip-rule="evenodd" d="M293.71 214.84C303.81 213.34 314.18 217.73 321.31 224.05C331.18 232.76 339.93 255.3 319.64 256.68C312.01 257.2 302.25 253.68 295.37 248.32C285.52 240.62 272.52 217.99 293.71 214.84Z" fill="white"/>
<path fill-rule="evenodd" clip-rule="evenodd" d="M449.94 260.03C449.87 262.01 448.56 263.77 446.65 264.31C432.88 268.25 419.72 259.74 408.34 250.82C404.15 247.54 373.94 219.77 404.16 223.21C413.46 224.27 429.43 232.69 439.3 241.62C444.68 246.49 450.16 253.21 449.94 260.03Z" fill="white"/>
<path fill-rule="evenodd" clip-rule="evenodd" d="M245.16 256.68C254.09 255.23 266.22 259.3 273.62 265.89C285.15 276.15 294.32 300.07 283.66 315.25C279.64 320.97 270.09 324.4 264.41 324.46C242.74 324.66 215.02 292.52 228.43 267.56C230.99 262.8 236.68 258.06 245.16 256.68Z" fill="white"/>
<path fill-rule="evenodd" clip-rule="evenodd" d="M338.05 175.25C335.67 179.61 327.08 179.51 318.86 175.01C310.63 170.52 305.91 163.34 308.3 158.98C310.67 154.63 319.25 154.73 327.5 159.22C335.69 163.72 340.43 170.9 338.05 175.25Z" fill="white"/>
<path fill-rule="evenodd" clip-rule="evenodd" d="M211.68 163.1C211.68 168.71 203.34 173.27 193.03 173.27C182.72 173.27 174.38 168.71 174.38 163.1C174.38 157.49 182.72 152.93 193.03 152.93C203.34 152.93 211.68 157.49 211.68 163.1Z" fill="white"/>
<path fill-rule="evenodd" clip-rule="evenodd" d="M215.55 184.41C215.55 191.62 207.21 197.49 196.9 197.49C186.6 197.49 178.26 191.63 178.26 184.41C178.26 177.19 186.6 171.34 196.9 171.34C207.21 171.33 215.55 177.19 215.55 184.41Z" fill="white"/>
<path d="M292.36 178.76C295.94 175.79 296.31 171.16 293.1 167.8C289.13 163.66 283.09 160.34 276.97 159.62C271.02 158.92 262.91 159.57 261.91 164.64C260.2 173.27 275.27 179.86 281.67 180.73C284.32 181.08 290.71 180.13 292.36 178.76Z" fill="white"/>
<path d="M289.67 180.54C288.15 180.43 286.37 180.74 284.5 180.92C282.98 181.07 281.52 181.58 280.26 182.43C277.84 184.05 277.05 186.24 276.97 188.06C276.53 198.57 295.25 208.9 309.41 207.25C313.6 206.76 316.72 203.13 316.49 198.92C315.88 188.05 296.73 181.03 289.67 180.54Z" fill="white"/>
<path d="M255.56 204.96C257.86 204.63 260.03 203.63 261.74 202.06C270.83 193.72 256.68 179.54 245.16 178.02C235.59 176.76 225.47 179.77 225.09 188.06C224.65 197.25 239.12 204.43 244.36 205.38C248.01 206.05 252.8 205.35 255.56 204.96Z" fill="white"/>
<path d="M255.24 206.15C250.55 205.62 247.19 206.09 245.73 206.37C245.29 206.46 244.85 206.57 244.43 206.72C237.72 209.05 233.04 212.83 232.62 219.86C231.79 233.59 246.5 244.37 257.72 245.8C265.31 246.77 275.32 245.29 278.64 239.94C286.92 226.61 272.99 213.27 260.56 207.62C258.87 206.86 257.08 206.36 255.24 206.15Z" fill="white"/>
<path d="M98.18 406.86C94.51 408.59 90.31 409.45 85.6 409.45C82.24 409.45 79.18 408.86 76.44 407.67C73.7 406.49 71.35 404.84 69.42 402.74C67.48 400.64 65.99 398.14 64.94 395.24C63.89 392.34 63.36 389.18 63.36 385.75C63.36 382.14 63.92 378.78 65.04 375.68C66.16 372.57 67.76 369.87 69.84 367.58C71.92 365.29 74.44 363.49 77.39 362.19C80.34 360.88 83.66 360.23 87.33 360.23C91.38 360.23 95 360.85 98.18 362.09V366.8C94.77 365.1 91.13 364.24 87.26 364.24C84.18 364.24 81.45 364.77 79.06 365.83C76.67 366.89 74.66 368.37 73.02 370.26C71.38 372.15 70.13 374.39 69.27 376.97C68.41 379.55 67.98 382.36 67.98 385.42C67.98 388.16 68.37 390.75 69.14 393.17C69.91 395.59 71.06 397.71 72.58 399.53C74.1 401.34 75.98 402.78 78.24 403.85C80.5 404.91 83.12 405.44 86.11 405.44C90.69 405.44 94.72 404.48 98.19 402.55V406.86H98.18Z" fill="white"/>
<path d="M128.27 409.45C124.84 409.45 121.75 408.82 119.01 407.57C116.26 406.32 113.94 404.61 112.02 402.44C110.11 400.27 108.63 397.72 107.6 394.79C106.57 391.86 106.06 388.71 106.06 385.35C106.06 381.63 106.57 378.23 107.6 375.14C108.63 372.05 110.13 369.41 112.1 367.21C114.07 365.01 116.48 363.29 119.34 362.06C122.19 360.83 125.45 360.22 129.1 360.22C132.46 360.22 135.48 360.82 138.16 362.03C140.84 363.24 143.12 364.91 145 367.04C146.88 369.18 148.33 371.7 149.33 374.63C150.34 377.55 150.84 380.73 150.84 384.16C150.84 387.77 150.35 391.11 149.36 394.2C148.38 397.29 146.92 399.96 145.01 402.22C143.1 404.48 140.74 406.25 137.94 407.53C135.15 408.8 131.92 409.45 128.27 409.45ZM128.64 364.23C125.76 364.23 123.21 364.78 120.99 365.87C118.77 366.97 116.89 368.45 115.36 370.32C113.83 372.19 112.68 374.38 111.89 376.89C111.1 379.4 110.7 382.07 110.68 384.91C110.66 387.61 111.01 390.19 111.73 392.66C112.45 395.13 113.53 397.31 114.98 399.2C116.43 401.09 118.26 402.6 120.47 403.73C122.68 404.86 125.27 405.42 128.24 405.42C131.21 405.42 133.81 404.91 136.06 403.88C138.31 402.85 140.18 401.42 141.69 399.6C143.19 397.77 144.33 395.6 145.09 393.08C145.85 390.56 146.24 387.8 146.24 384.81C146.24 382.02 145.9 379.38 145.23 376.88C144.55 374.38 143.5 372.19 142.08 370.32C140.65 368.45 138.83 366.97 136.62 365.87C134.41 364.77 131.73 364.23 128.64 364.23Z" fill="white"/>
<path d="M163.09 408.62V361.02H176.1C178.07 361.02 179.85 361.29 181.43 361.82C183.01 362.35 184.36 363.1 185.48 364.06C186.6 365.02 187.46 366.18 188.05 367.53C188.65 368.88 188.95 370.36 188.95 371.98C188.95 373.35 188.76 374.64 188.38 375.83C188 377.02 187.46 378.11 186.75 379.1C186.04 380.09 185.17 380.94 184.14 381.66C183.11 382.38 181.94 382.95 180.64 383.37V383.5C182.23 383.66 183.68 384.04 184.99 384.66C186.3 385.28 187.41 386.09 188.34 387.08C189.27 388.08 189.99 389.24 190.5 390.58C191.01 391.92 191.26 393.38 191.26 394.98C191.26 396.99 190.9 398.84 190.16 400.51C189.43 402.18 188.41 403.62 187.09 404.83C185.77 406.04 184.21 406.97 182.39 407.63C180.57 408.29 178.57 408.63 176.38 408.63H163.09V408.62ZM167.51 365.06V381.96H173.68C175.29 381.96 176.76 381.75 178.06 381.33C179.37 380.91 180.48 380.3 181.41 379.5C182.34 378.7 183.05 377.74 183.55 376.61C184.05 375.48 184.3 374.21 184.3 372.79C184.3 367.63 181.09 365.06 174.67 365.06H167.51ZM167.51 385.94V404.6H175.71C179.23 404.6 181.93 403.78 183.83 402.13C185.72 400.48 186.67 398.14 186.67 395.11C186.67 389 182.52 385.95 174.22 385.95H167.51V385.94Z" fill="white"/>
<path d="M205.15 408.62V361.02H218.16C220.13 361.02 221.91 361.29 223.49 361.82C225.07 362.35 226.42 363.1 227.54 364.06C228.66 365.02 229.52 366.18 230.11 367.53C230.71 368.88 231.01 370.36 231.01 371.98C231.01 373.35 230.82 374.64 230.45 375.83C230.07 377.02 229.53 378.11 228.82 379.1C228.11 380.09 227.24 380.94 226.21 381.66C225.18 382.38 224.01 382.95 222.71 383.37V383.5C224.3 383.66 225.75 384.04 227.06 384.66C228.37 385.28 229.48 386.09 230.41 387.08C231.34 388.08 232.06 389.24 232.57 390.58C233.08 391.92 233.33 393.38 233.33 394.98C233.33 396.99 232.97 398.84 232.23 400.51C231.5 402.18 230.48 403.62 229.16 404.83C227.84 406.04 226.28 406.97 224.46 407.63C222.64 408.29 220.64 408.63 218.45 408.63H205.15V408.62ZM209.56 365.06V381.96H215.73C217.34 381.96 218.81 381.75 220.11 381.33C221.42 380.91 222.53 380.3 223.46 379.5C224.39 378.7 225.1 377.74 225.6 376.61C226.1 375.48 226.35 374.21 226.35 372.79C226.35 367.63 223.14 365.06 216.72 365.06H209.56ZM209.56 385.94V404.6H217.76C221.28 404.6 223.98 403.78 225.88 402.13C227.77 400.48 228.72 398.14 228.72 395.11C228.72 389 224.57 385.95 216.27 385.95H209.56V385.94Z" fill="white"/>
<path d="M247.2 408.62V361.02H251.62V404.61H270.74V408.63H247.2V408.62Z" fill="white"/>
<path d="M280.13 408.62V361.02H303.33V365.07H284.54V382.53H301.93V386.51H284.54V404.6H304.39V408.62H280.13Z" fill="white"/>
<path d="M316.54 401.64C317.34 402.24 318.22 402.77 319.18 403.25C320.14 403.73 321.13 404.12 322.14 404.44C323.15 404.76 324.16 405 325.18 405.17C326.2 405.34 327.17 405.42 328.1 405.42C331.71 405.42 334.41 404.72 336.2 403.33C337.99 401.94 338.89 399.93 338.89 397.32C338.89 396.06 338.68 394.96 338.26 394.02C337.84 393.08 337.19 392.2 336.3 391.38C335.41 390.56 334.3 389.75 332.95 388.94C331.6 388.13 330.01 387.22 328.17 386.2C326.13 385.09 324.39 384.05 322.94 383.06C321.49 382.08 320.31 381.07 319.39 380.04C318.47 379.01 317.8 377.9 317.37 376.7C316.94 375.5 316.72 374.14 316.72 372.62C316.72 370.69 317.13 368.97 317.95 367.44C318.77 365.91 319.87 364.61 321.27 363.54C322.66 362.47 324.3 361.64 326.17 361.07C328.04 360.5 330.04 360.21 332.16 360.21C335.9 360.21 339.03 360.73 341.55 361.77V366.65C338.74 365.03 335.44 364.23 331.66 364.23C330.24 364.23 328.91 364.4 327.66 364.74C326.41 365.08 325.31 365.59 324.37 366.25C323.43 366.91 322.69 367.74 322.15 368.72C321.61 369.7 321.34 370.85 321.34 372.16C321.34 373.4 321.52 374.47 321.89 375.36C322.25 376.26 322.84 377.1 323.65 377.9C324.46 378.7 325.52 379.49 326.84 380.27C328.16 381.06 329.77 381.96 331.67 382.98C333.66 384.04 335.4 385.08 336.88 386.08C338.36 387.09 339.6 388.14 340.58 389.23C341.56 390.33 342.3 391.49 342.79 392.72C343.28 393.95 343.52 395.31 343.52 396.82C343.52 398.9 343.13 400.73 342.36 402.31C341.59 403.89 340.5 405.2 339.11 406.24C337.72 407.28 336.06 408.07 334.13 408.6C332.2 409.13 330.09 409.4 327.79 409.4C327.04 409.4 326.14 409.34 325.1 409.22C324.06 409.1 323.01 408.92 321.95 408.69C320.89 408.46 319.87 408.18 318.91 407.86C317.95 407.54 317.17 407.19 316.57 406.81V401.64H316.54Z" fill="white"/>
<path d="M368.33 365.06V408.61H363.91V365.06H350.2V361.01H382.07V365.06H368.33Z" fill="white"/>
<path d="M406.57 409.45C403.14 409.45 400.05 408.82 397.31 407.57C394.56 406.32 392.24 404.61 390.32 402.44C388.41 400.27 386.93 397.72 385.9 394.79C384.87 391.86 384.36 388.71 384.36 385.35C384.36 381.63 384.87 378.23 385.9 375.14C386.93 372.05 388.43 369.41 390.4 367.21C392.37 365.01 394.78 363.29 397.64 362.06C400.49 360.83 403.75 360.22 407.4 360.22C410.76 360.22 413.78 360.82 416.46 362.03C419.14 363.24 421.42 364.91 423.3 367.04C425.18 369.18 426.63 371.7 427.63 374.63C428.64 377.55 429.14 380.73 429.14 384.16C429.14 387.77 428.65 391.11 427.66 394.2C426.68 397.29 425.22 399.96 423.31 402.22C421.4 404.48 419.04 406.25 416.24 407.53C413.45 408.8 410.22 409.45 406.57 409.45ZM406.94 364.23C404.06 364.23 401.51 364.78 399.29 365.87C397.07 366.96 395.19 368.45 393.66 370.32C392.13 372.19 390.98 374.38 390.19 376.89C389.4 379.4 389 382.07 388.98 384.91C388.96 387.61 389.31 390.19 390.03 392.66C390.75 395.13 391.83 397.31 393.28 399.2C394.73 401.09 396.56 402.6 398.77 403.73C400.98 404.86 403.57 405.42 406.54 405.42C409.51 405.42 412.11 404.91 414.36 403.88C416.61 402.85 418.48 401.42 419.99 399.6C421.49 397.77 422.63 395.6 423.39 393.08C424.15 390.56 424.54 387.8 424.54 384.81C424.54 382.02 424.2 379.38 423.53 376.88C422.85 374.38 421.8 372.19 420.38 370.32C418.95 368.45 417.13 366.97 414.92 365.87C412.69 364.78 410.03 364.23 406.94 364.23Z" fill="white"/>
<path d="M472.63 408.62L446.21 370.41C445.88 369.92 445.55 369.43 445.23 368.92C444.91 368.41 444.65 367.91 444.45 367.43H444.28C444.32 367.83 444.36 368.38 444.4 369.09C444.43 369.8 444.45 370.68 444.45 371.75V408.63H440.03V361.03H444.91L470.9 398.77C471.3 399.37 471.66 399.93 471.98 400.45C472.3 400.97 472.59 401.45 472.86 401.89H473.03C472.94 401.16 472.88 400.34 472.83 399.43C472.79 398.52 472.76 397.52 472.76 396.41V361.02H477.21V408.62H472.63Z" fill="white"/>
<path d="M489.56 408.62V361.02H512.76V365.07H493.97V382.53H511.36V386.51H493.97V404.6H513.82V408.62H489.56Z" fill="white"/>
<path d="M342.67 460.24V457.5C343.53 458.24 344.56 458.83 345.78 459.26C347 459.69 348.05 459.9 348.95 459.9C352.92 459.9 354.91 458.28 354.91 455.03C354.91 453.91 354.47 452.95 353.6 452.16C352.73 451.37 351.31 450.55 349.35 449.71C346.93 448.65 345.23 447.56 344.24 446.43C343.26 445.3 342.77 443.93 342.77 442.31C342.77 440.25 343.56 438.58 345.13 437.31C346.71 436.04 348.65 435.41 350.95 435.41C353.13 435.41 354.99 435.86 356.54 436.75V439.32C354.66 438.1 352.72 437.49 350.7 437.49C349.03 437.49 347.69 437.92 346.67 438.79C345.65 439.65 345.14 440.78 345.14 442.17C345.14 443.37 345.46 444.35 346.1 445.1C346.74 445.85 348.16 446.71 350.35 447.68C352.99 448.87 354.8 449.97 355.79 450.98C356.78 451.99 357.27 453.34 357.27 455.02C357.27 457.03 356.52 458.69 355.01 460C353.5 461.31 351.42 461.97 348.77 461.97C346.34 461.97 344.3 461.39 342.67 460.24Z" fill="white"/>
<path d="M373.81 461.97C370.12 461.97 367.19 460.75 365.04 458.32C362.89 455.89 361.81 452.73 361.81 448.84C361.81 444.64 362.94 441.35 365.19 438.97C367.44 436.6 370.4 435.41 374.08 435.41C377.69 435.41 380.54 436.59 382.64 438.95C384.73 441.31 385.78 444.57 385.78 448.74C385.78 452.68 384.71 455.87 382.58 458.31C380.44 460.75 377.51 461.97 373.81 461.97ZM373.98 437.49C371 437.49 368.62 438.5 366.85 440.51C365.08 442.52 364.19 445.32 364.19 448.89C364.19 452.2 365.05 454.87 366.79 456.88C368.52 458.89 370.89 459.9 373.89 459.9C376.94 459.9 379.29 458.91 380.94 456.93C382.59 454.95 383.41 452.21 383.41 448.7C383.41 445.09 382.59 442.32 380.95 440.39C379.3 438.45 376.98 437.49 373.98 437.49Z" fill="white"/>
<path d="M401.77 426.26C401.16 425.78 400.24 425.54 399 425.54C395.88 425.54 394.33 427.63 394.33 431.82V436.02H401.03V438.1H394.33V461.34H392.06V438.1H387.51V436.02H392.06V431.62C392.06 428.95 392.73 426.92 394.07 425.54C395.41 424.16 397.09 423.46 399.1 423.46C400.17 423.46 401.06 423.62 401.77 423.93V426.26Z" fill="white"/>
<path d="M416.04 461.01C414.85 461.57 413.74 461.85 412.7 461.85C408.96 461.85 407.09 459.61 407.09 455.12V438.11H402.54V436.03H407.09V429.45C407.45 429.32 407.83 429.19 408.23 429.05C408.63 428.93 409 428.81 409.37 428.68V436.02H416.05V438.1H409.37V454.82C409.37 456.57 409.65 457.83 410.2 458.62C410.75 459.4 411.69 459.79 413.01 459.79C413.95 459.79 414.96 459.49 416.05 458.88V461.01H416.04Z" fill="white"/>
<path d="M442.52 461.35H440.39L434.88 442.26C434.73 441.73 434.6 441.02 434.48 440.13H434.36C434.33 440.51 434.16 441.2 433.87 442.21L427.69 461.35H425.56L417.92 436.03H420.44L426.32 456.23C426.47 456.76 426.58 457.47 426.67 458.36H426.87C426.9 457.88 427.06 457.17 427.34 456.23L433.77 436.03H435.33L441.07 456.23C441.2 456.71 441.32 457.42 441.42 458.36H441.62C441.62 457.88 441.76 457.17 442.04 456.23L448.05 436.03H450.4L442.52 461.35Z" fill="white"/>
<path d="M470.47 461.35V456.28H470.37C469.56 458.01 468.39 459.39 466.85 460.42C465.31 461.45 463.6 461.97 461.72 461.97C459.31 461.97 457.41 461.29 456.01 459.94C454.61 458.59 453.91 456.88 453.91 454.82C453.91 450.4 456.84 447.73 462.69 446.81L470.48 445.65C470.48 440.21 468.44 437.49 464.35 437.49C461.56 437.49 458.85 438.61 456.22 440.85V438.11C457.16 437.37 458.43 436.73 460.04 436.21C461.65 435.68 463.16 435.42 464.58 435.42C467.18 435.42 469.2 436.23 470.63 437.84C472.06 439.46 472.77 441.8 472.77 444.89V461.36H470.47V461.35ZM463.49 448.74C460.84 449.12 458.97 449.73 457.9 450.58C456.83 451.43 456.29 452.81 456.29 454.72C456.29 456.22 456.79 457.46 457.79 458.43C458.79 459.4 460.18 459.89 461.96 459.89C464.4 459.89 466.43 458.99 468.04 457.18C469.66 455.37 470.46 453.05 470.46 450.19V447.72L463.49 448.74Z" fill="white"/>
<path d="M492.3 438.4C491.54 437.86 490.65 437.58 489.63 437.58C487.63 437.58 485.96 438.61 484.61 440.67C483.26 442.73 482.58 445.66 482.58 449.45V461.34H480.35V436.02H482.58V441.63H482.68C483.26 439.7 484.17 438.2 485.42 437.13C486.67 436.06 488.12 435.52 489.77 435.52C490.71 435.52 491.55 435.67 492.29 435.97V438.4H492.3Z" fill="white"/>
<path d="M496.6 448.79C496.6 452.27 497.4 454.99 499.01 456.95C500.62 458.91 502.82 459.89 505.63 459.89C508.46 459.89 511.23 458.84 513.94 456.75V459.17C511.32 461.03 508.39 461.96 505.16 461.96C501.9 461.96 499.26 460.79 497.25 458.45C495.24 456.11 494.23 452.8 494.23 448.53C494.23 444.84 495.28 441.73 497.38 439.19C499.48 436.66 502.21 435.39 505.58 435.39C508.73 435.39 511.14 436.49 512.83 438.7C514.52 440.91 515.35 443.93 515.35 447.75V448.76H496.6V448.79ZM512.97 446.71C512.87 443.79 512.17 441.53 510.87 439.91C509.57 438.29 507.77 437.49 505.48 437.49C503.11 437.49 501.14 438.29 499.58 439.88C498.02 441.47 497.06 443.75 496.7 446.72H512.97V446.71Z" fill="white"/>
</svg>
